#!OML:ASF F:\VICON\USERDATA\INSTALL\rory3\rory3.ASF
:FULLY-SPECIFIED
:DEGREES
37
root 0.07761751454997579 18.06198292813819 8.122342674521674 -1.7058307627986453 -3.5443689993327867 -6.861430184064798
lfemur -30.593719548910492 4.373620999815678 -12.712551568604802
ltibia 44.604526790219424
lfoot -5.266054036135956 1.6984651794044208
ltoes -3.7974185831703338
rfemur 4.137814091723232 5.424899734458789 34.035133986527
rtibia 26.162532481175173
rfoot -20.421292111567677 -5.423909627993627
rtoes 4.000631163037097
lowerback 9.914614706805652 1.5463796240122538 7.277432038336464
upperback 0.08180403258467131 3.0402267479591814 1.9775743556045855
thorax -5.3127958708055605 1.3344681462293706 -2.15119552786234
lowerneck -16.31656945192056 -3.094024538278636 -1.413741588953807
upperneck 21.76676841636522 -3.918960194001873 -0.2530482798756958
head 9.575681700939093 -1.9677360309220824 -0.36466026956679104
lclavicle -4.533851670230898e-16 -7.764982111040896e-16
lhumerus -35.88794913926005 7.25784051809433 80.76714631046978
lradius 23.74768782188537
lwrist 5.186222699841733
lhand -29.697509232243014 17.209442653807272
lfingers 7.12502
lthumb -3.1511015793839574 46.86706286605556
rclavicle -4.533851669721986e-16 -7.764982110639942e-16
rhumerus -22.077425993814902 -8.49962348262323 -82.79289333404822
rradius 30.73685741399577
rwrist -1.657077949731649
rhand -18.312493692153605 23.636744200882763
rfingers 7.12502
rthumb 7.96597521359099 -6.060867104627986
38
root 0.09846742955473059 18.04087770395035 8.42636781289233 -0.8739640492779206 -3.876657374414182 -7.614376297717552
lfemur -30.942570055678125 1.114025015658747 -11.220560404880512
ltibia 33.6209808297535
lfoot -2.4862857609854974 2.8107326411099764
ltoes -5.5884903348208645
rfemur 5.916751051562446 5.74670927563046 34.571540215262296
rtibia 24.12399424383561
rfoot -20.186716523341353 -5.748579665699335
rtoes 1.8391546838568822
lowerback 9.332949328941313 1.7766077950206924 8.06869469062142
upperback 0.01594602955275 3.4652773395380496 2.036633816187445
thorax -5.108509937733598 1.5387775265989885 -2.6519950857940273
lowerneck -16.450321476565694 -3.108380466837204 -1.3560136192005354
upperneck 21.51286270120245 -3.9615841874285556 -0.17784326015720586
head 9.525191512403875 -1.9704651130417947 -0.3643870201693616
lclavicle -4.533851670226382e-16 -7.764982111032542e-16
lhumerus -36.809046701234756 8.931437743267884 80.15849284501698
lradius 22.336476168339235
lwrist 4.202432555242708
lhand -28.782514032855858 17.952668174648206
lfingers 7.12502
lthumb -2.038804151505209 48.342877325813426
rclavicle -4.533851669716852e-16 -7.764982110631715e-16
rhumerus -21.006735492984763 -8.165527639288918 -82.82068289293605
rradius 31.39937319849635
rwrist -2.27991925552754
rhand -18.45091785549019 23.845011693960448
rfingers 7.12502
rthumb 7.877795558921633 -5.724924635879175
39
root 0.12699507969020682 17.96954447293084 8.96498046734379 -0.14575997594133083 -4.307500863207466 -7.823907160180263
lfemur -29.946943910672623 -3.4283238622069456 -9.445635823901902
ltibia 22.205664005899333
lfoot -2.791327003112344 4.637991832489704
ltoes -6.079410762297703
rfemur 8.187360984405686 5.865161242507133 34.7319058814371
rtibia 23.10822719651975
rfoot -19.815726166311002 -5.373040966497344
rtoes -0.5490342219195958
lowerback 8.734277122660659 1.983901518697578 8.206482909103087
upperback -0.06048928964051463 3.748544522356603 1.984634262133361
thorax -4.970118188367658 1.6796994703828485 -2.8739395858278103
lowerneck -16.552179189660155 -3.1081783854026703 -1.3013590702200495
upperneck 21.31381855383694 -3.984887072365572 -0.08241869958191339
head 9.485996795281414 -1.9621430728531015 -0.3481595796268856
lclavicle -4.533851670319072e-16 -7.764982111098216e-16
lhumerus -37.60538961735518 10.347879341871163 79.51373236217131
lradius 20.896829074791246
lwrist 3.5019426943608734
lhand -28.394053323962908 18.274894317673056
lfingers 7.12502
lthumb -1.698812664912582 48.431257552623094
rclavicle -4.533851669806263e-16 -7.764982110694927e-16
rhumerus -20.232583543237453 -8.154076240231106 -82.88128943690636
rradius 31.91003555612408
rwrist -2.5815854855504403
rhand -18.487037929132708 24.082199218539813
rfingers 7.12502
rthumb 7.867873072440411 -5.404551121314807
40
root 0.1690867189693896 17.882189834903674 9.674826346769995 0.13780223660781 -4.604744246556266 -7.690989634034908
lfemur -28.189846514522507 -7.557796820536973 -8.173229088142918
ltibia 12.836577875413681
lfoot -6.261891023463612 7.108047996252844
ltoes -5.318587926791189
rfemur 10.622873573395513 6.0229137149273235 34.50486996855629
rtibia 24.142867790399627
rfoot -18.88241775448391 -4.191982731323999
rtoes -3.3183581714952695
lowerback 8.409554578735467 2.1240532004853945 8.017547136529002
upperback -0.11314255032895544 3.8867079628368613 1.8875597749508153
thorax -4.915465361631914 1.7506347382093157 -2.8622167327785846
lowerneck -16.660551627175575 -3.1212457561968625 -1.2464914560365603
upperneck 21.132472857743828 -4.037482168516313 0.008769442620389478
head 9.433714011099724 -1.9710365567119903 -0.3323840716322593
lclavicle -4.53385167034768e-16 -7.764982111115906e-16
lhumerus -38.26500082002715 11.529497646540268 78.87766794555144
lradius 19.462229159811805
lwrist 2.422942924310935
lhand -28.28212343663225 19.61643444659461
lfingers 7.12502
lthumb -1.7177491060066763 49.886673083936515
rclavicle -4.533851669916144e-16 -7.764982110777298e-16
rhumerus -19.645713366421877 -8.23224859853824 -83.06548486744416
rradius 32.11393460457017
rwrist -2.5671016266962576
rhand -18.561872305147897 24.201950381032226
rfingers 7.12502
rthumb 7.758493289732273 -5.295007665724746
